# xmcd CD database file
#
# Track frame offsets:
#	150
#	18360
#	32463
#	44792
#	59417
#	73792
#	86473
#	103578
#	123661
#	140752
#	157429
#	173678
#	186037
#	202296
#
# Disc length: 2960 seconds
#
# Revision: 0
# Processed by: cddbd v1.5.1PL2 Copyright (c) Steve Scherf et al.
# Submitted via: CDex 1.51
#
DISCID=d40b8e0e
DTITLE=Steve Tyrell - Songs of Sinatra
DYEAR=2005
DGENRE=Jazz
TTITLE0=I Get A Kick Out Of You
TTITLE1=I Concentrate On You
TTITLE2=Fly Me to The Moon
TTITLE3=Witchcraft
TTITLE4=In The Wee Small Hours
TTITLE5=The One I Love Belongs To Somebody Else
TTITLE6=(I've got You) Under My Skin
TTITLE7=Bewitched Bothered And Bewildered
TTITLE8=Night And Day
TTITLE9=All The Way
TTITLE10=Nice 'N' Easy
TTITLE11=Something Stupid
TTITLE12=All Of Me
TTITLE13=You Go To My Head
EXTD=YEAR: 2005
EXTT0=
EXTT1=
EXTT2=
EXTT3=
EXTT4=
EXTT5=
EXTT6=
EXTT7=
EXTT8=
EXTT9=
EXTT10=
EXTT11=
EXTT12=
EXTT13=
PLAYORDER=
